<svg width="240" height="143" viewBox="0 0 240 143" fill="none" xmlns="http://www.w3.org/2000/svg">
<path d="M153.691 5.23083C163.746 6.85011 178.582 18.6499 184.743 24.3474L195.094 39.4158C203.375 51.4705 201.173 72.0264 199.037 80.7976L186.961 109.81C183.61 118.446 169.135 128.252 162.316 132.075L141.368 139.722C129.145 145.659 102.594 142.196 90.8465 139.722C81.9744 139.002 67.7626 130.576 61.7657 126.452L47.7181 106.886C31.9366 79.8399 45.2448 47.2292 45.2448 47.2292C45.2448 47.2292 47.3654 43.2863 47.7181 42.5644C61.2639 14.8435 81.8101 8.0046 92.8181 3.20672C125.546 -3.45036 147.037 1.78234 153.691 5.23083Z" fill="#CFC7BB"/>
<path d="M166.471 17.8287L177.406 26.7577C183.593 31.8101 189.175 42.22 191.193 46.7934C194.616 53.5881 194.204 67.4823 193.57 73.5802C192.619 83.3367 186.201 98.1166 183.111 104.287C180.638 111.43 170.987 119.459 166.471 122.58L153.634 130.203C143.365 136.3 119.403 137.244 108.706 136.954C96.5347 136.954 79.5459 129.404 72.5729 125.629C62.1134 120.577 53.001 104.505 49.7522 97.1003C45.9487 89.2602 46.8996 67.7001 47.8505 57.9001L58.5477 37.6466L66.8677 27.1932C78.6584 14.475 90.7978 9.69833 95.3936 8.8998C107.184 4.36999 131.209 6.14126 141.748 7.59312C150.496 9.33535 161.875 15.1428 166.471 17.8287Z" fill="#3C3731"/>
<path d="M0.800633 42.6925L0.302461 35.6265L1.60158 36.0421L3.80114 38.4232L4.69797 43.9394L6.29593 52.1959L8.24279 54.5947L9.20024 53.7664L8.75544 47.4575L6.9084 35.668L7.68793 32.3161L9.00484 32.9841L10.9481 38.9337L12.7025 53.0123L14.2188 52.9054L15.7564 49.5L15.3367 36.3418L15.9205 30.214L18.4617 33.839L20.2162 47.9175C20.1848 50.3544 18.1386 55.6723 17.1195 58.0267L13.3964 62.8542L7.83689 63.2461C6.55273 62.3222 4.11757 58.5207 3.06051 56.7354L0.800633 42.6925Z" fill="#CFC7BB"/>
<path d="M9.71234 82.6418L7.24258 62.0198L13.0014 60.8529L13.9197 63.0707L15.8059 71.8141L20.3043 103.198L24.5927 128.004L22.6172 136.005L17.9795 135.064L14.2746 122.137C14.1892 120.926 12.2224 105.036 11.2497 97.2428L9.71234 82.6418Z" fill="#124E59"/>
<path d="M233.881 23.8069L236.17 20L238.205 21.5228C239.833 24.9744 240.07 32.436 239.985 35.7354L236.17 56.0391C232.609 69.9979 226.505 73.4665 222.689 74.3125L217.348 72.5359L219.128 62.384L233.881 23.8069Z" fill="#CFC7BB"/>
<path d="M222.689 72.0285L218.874 71.2671L217.602 72.0285L210.989 90.3018L201.324 118.727L197 134.716L202.341 137L210.989 123.803L221.672 84.2107L222.689 72.0285Z" fill="#124E59"/>
</svg>
