<svg width="123" height="53" viewBox="0 0 123 53" fill="none" xmlns="http://www.w3.org/2000/svg">
<path d="M1.89564 23.028C1.89564 18.3576 13.3396 10.3791 19.0616 6.97363C28.2167 6.97363 32.4129 25.4605 33.3666 34.7039C32.2222 38.2066 27.1678 46.8662 24.7836 50.7582C20.206 55.4286 7.61764 51.7312 1.89564 49.2987C-1.53755 41.1256 0.465146 28.3794 1.89564 23.028Z" fill="#FFBB00"/>
<path d="M10.237 31.7852C12.5258 27.1149 19.7736 24.0013 23.1115 23.0283C25.4002 26.5311 25.9725 37.1367 25.9725 42.0016C24.8281 44.3368 21.681 47.8396 20.2505 49.2991C14.5285 52.8018 8.32969 47.8396 5.94552 44.9206C4.80112 41.4178 8.32968 34.7042 10.237 31.7852Z" fill="#B10003"/>
<path d="M121.104 23.028C121.104 18.3576 109.66 10.3791 103.938 6.97363C94.7833 6.97363 90.5871 25.4605 89.6334 34.7039C90.7778 38.2066 95.8322 46.8662 98.2164 50.7582C102.794 55.4286 115.382 51.7312 121.104 49.2987C124.538 41.1256 122.535 28.3794 121.104 23.028Z" fill="#FFBB00"/>
<path d="M112.763 31.7852C110.474 27.1149 103.226 24.0013 99.8887 23.0283C97.5999 26.5311 97.0276 37.1367 97.0276 42.0016C98.172 44.3368 101.319 47.8396 102.75 49.2991C108.472 52.8018 114.67 47.8396 117.055 44.9206C118.199 41.4178 114.67 34.7042 112.763 31.7852Z" fill="#B10003"/>
<path d="M45.5946 12.8919L41.3601 37.2432C40.7623 40.6811 54.285 49.1802 61.1211 53C67.8963 51.8541 77.1181 43.9279 80.8821 40.1081C83.1405 34.3784 79.9411 19.5766 78.0591 12.8919C75.8007 7.16216 62.0621 1.90991 55.4751 0C53.2167 1.14595 47.9471 9.07207 45.5946 12.8919Z" fill="#FFBB00"/>
<path d="M52.8604 30.9169L57.1801 20.6113C61.4999 20.6113 74.4593 26.5002 74.4593 29.4447C74.4593 31.8002 72.5394 41.2224 71.5794 45.6391C66.9716 50.3502 57.1801 47.6021 52.8604 45.6391V30.9169Z" fill="#B10003"/>
</svg>
