<svg width="210" height="53" viewBox="0 0 210 53" fill="none" xmlns="http://www.w3.org/2000/svg">
<path d="M49.7174 28.7712C49.7174 24.0744 60.1432 15.0722 65.356 11.1582C69.9055 11.1582 75.7818 21.9217 78.1513 27.3035C80.426 30.8261 77.2035 43.4487 75.3079 49.3197C71.8958 55.1907 59.6693 52.7445 53.9825 50.7875C50.5704 47.2649 49.7174 34.6422 49.7174 28.7712Z" fill="#FFBB00"/>
<path d="M68.2512 25.8359C62.5645 25.8359 57.3516 35.6209 55.456 40.5134C54.8488 41.9812 59.7211 52.2554 62.5645 52.2554C64.8392 52.2554 69.199 44.4274 71.0946 40.5134C73.3693 33.4682 70.1468 27.7929 68.2512 25.8359Z" fill="#B10003"/>
<path d="M8.74304 8.83333L30.2611 0C35.9992 4.71111 40.3029 25.5185 41.7375 35.3333C39.4422 41.2222 24.523 49.5648 17.3503 53C13.0467 53 1.57035 38.2778 0.135811 33.8611C-1.01182 30.3278 5.39578 15.7037 8.74304 8.83333Z" fill="#FFBB00"/>
<path d="M9.39668 25.1886C7.10142 34.6108 10.353 44.8182 12.2658 48.7441C16.8563 48.7441 25.6548 43.8371 29.4802 41.3836C29.4802 36.9669 23.742 19.2997 22.3075 17.8275C21.1599 16.6497 13.2221 22.2441 9.39668 25.1886Z" fill="#B10003"/>
<path d="M88.8108 23.028C88.8108 18.3576 100.263 10.3791 105.989 6.97363C115.15 6.97363 119.349 25.4605 120.304 34.7039C119.159 38.2066 114.101 46.8662 111.715 50.7582C107.134 55.4286 94.5368 51.7312 88.8108 49.2987C85.3752 41.1256 87.3793 28.3794 88.8108 23.028Z" fill="#FFBB00"/>
<path d="M97.158 31.7852C99.4484 27.1149 106.701 24.0013 110.042 23.0283C112.332 26.5311 112.905 37.1367 112.905 42.0016C111.759 44.3368 108.61 47.8396 107.179 49.2991C101.453 52.8018 95.2494 47.8396 92.8635 44.9206C91.7183 41.4178 95.2494 34.7042 97.158 31.7852Z" fill="#B10003"/>
<path d="M208.103 23.028C208.103 18.3576 196.651 10.3791 190.925 6.97363C181.763 6.97363 177.564 25.4605 176.61 34.7039C177.755 38.2066 182.813 46.8662 185.199 50.7582C189.78 55.4286 202.377 51.7312 208.103 49.2987C211.539 41.1256 209.535 28.3794 208.103 23.028Z" fill="#FFBB00"/>
<path d="M199.756 31.7852C197.466 27.1149 190.213 24.0013 186.873 23.0283C184.582 26.5311 184.01 37.1367 184.01 42.0016C185.155 44.3368 188.304 47.8396 189.736 49.2991C195.462 52.8018 201.665 47.8396 204.051 44.9206C205.196 41.4178 201.665 34.7042 199.756 31.7852Z" fill="#B10003"/>
<path d="M132.54 12.8919L128.303 37.2432C127.705 40.6811 141.237 49.1802 148.078 53C154.858 51.8541 164.086 43.9279 167.853 40.1081C170.113 34.3784 166.911 19.5766 165.028 12.8919C162.768 7.16216 149.019 1.90991 142.428 0C140.168 1.14595 134.895 9.07207 132.54 12.8919Z" fill="#FFBB00"/>
<path d="M139.811 30.9169L144.134 20.6113C148.457 20.6113 161.425 26.5002 161.425 29.4447C161.425 31.8002 159.504 41.2224 158.543 45.6391C153.932 50.3502 144.134 47.6021 139.811 45.6391V30.9169Z" fill="#B10003"/>
</svg>
