<svg width="201" height="162" viewBox="0 0 201 162" fill="none" xmlns="http://www.w3.org/2000/svg">
<path d="M131.447 128.543L141.255 131.277L141.268 137.345L127.076 134.251C121.651 132.924 112.765 133.596 108.118 133.054L100.992 133.589L94.0098 134.362C89.7924 134.91 80.5431 135.269 73.0218 136.388C65.5005 137.508 49.1317 136.44 49.1317 136.44C49.1317 136.44 34.2466 130.956 27.7099 127.109C21.1732 123.261 11.4083 113.905 7.75847 107.294C0.763038 94.6227 -0.0995748 79.364 0.217483 72.5603L6.62672 44.4156C11.0822 33.3742 17.5971 27.1089 22.565 22.8694C26.1399 18.8903 37.31 13.4607 42.4482 11.2433L75.2803 3.4506L108.122 0.0705456L108.138 7.24116L80.7695 10.0579C73.6025 10.0733 49.2646 17.8478 37.9916 21.7331C37.9916 21.7331 28.6396 24.0699 19.1084 35.5634C9.57729 47.0569 7.01554 70.7071 7.70466 82.4729C7.73814 97.9173 15.7218 107.277 20.2132 112.783C24.7045 118.29 44.6925 128.175 44.6925 128.175L56.0865 130.357C75.0019 131.42 74.8963 129.556 85.8578 128.658C92.9052 128.08 97.1215 127.21 101.434 126.649C101.434 126.649 109.534 126.551 113.027 126.771C116.519 126.992 123.16 128.02 131.447 128.543Z" fill="#DFD8CF"/>
<path d="M165.03 124.666L179.974 124.938L181.451 125.112L181.765 122.468L188.199 122.937L189.126 123.541L188.952 125.004L188.547 128.418L195.44 129.228L198.336 130.063C199.472 130.592 199.891 132.389 199.959 133.221L199.235 135.115L196.6 136.289L193.646 135.942L187.737 135.247L187.622 136.223L187.101 140.613L186.176 148.417L194.053 149.343L196.457 150.12C197.546 151.039 197.703 152.245 197.645 152.733C197.46 154.293 195.367 155.103 194.344 155.312L185.481 154.271L184.845 159.636L178.821 159.917L177.894 159.314L177.691 156.817L173.26 156.296C164.687 154.498 159.358 150.047 157.765 148.046L152.232 139.977L143.862 138.993L138.939 138.415L141.022 129.263L148.292 131.106L154.316 130.825L165.03 124.666Z" fill="#DFD8CF"/>
<path d="M173.749 131.131L171.664 131.875L170.624 149.063L172.593 149.294L173.808 139.051L173.749 131.131Z" fill="#CFC6BB"/>
<path d="M175.691 144.218L176.501 137.389L179.302 137.447L178 144.218L175.691 144.218Z" fill="#CFC6BB"/>
</svg>
