<svg width="272" height="68" viewBox="0 0 272 68" fill="none" xmlns="http://www.w3.org/2000/svg">
<path d="M239.413 54.1924C238.619 61.1927 231.473 63.9722 228 64.487L233.458 67.5751C235.84 68.8105 243.713 67.0604 247.352 66.0309L251.322 61.9131C254.497 66.0309 260.253 66.3741 262.734 66.0309L266.704 64.487C269.88 62.84 270.343 56.9377 270.177 54.1924L266.704 48.0154L269.185 45.4417C275.139 38.4412 270.177 29.4851 267.696 27.4262C265.215 25.3673 262.734 24.8526 262.734 24.8526C254.795 21.9702 249.171 27.0831 247.352 29.9999L243.879 26.9117C236.5 24.8526 233.458 29.1422 232.466 32.059C231.125 36 232.135 40.2947 233.458 41.8388C239.413 49.5 239.578 51.4471 239.413 54.1924Z" fill="#DFD8CF"/>
<path d="M50.3622 46.6609C51.5892 57.4796 62.632 61.7753 68 62.5708L59.5645 67.3434C55.8836 69.2525 43.7161 66.5479 38.0924 64.9569L31.9575 58.5929C27.0496 64.9569 18.154 65.4872 14.3197 64.9569L8.18481 62.5708C3.2769 60.0255 2.56116 50.9037 2.81678 46.6609L8.18481 37.1147L4.35051 33.1372C-4.85183 22.3182 2.81679 8.47696 6.65109 5.29499C10.4854 2.11302 14.3197 1.31771 14.3197 1.31771C26.5895 -3.13704 35.2806 4.76485 38.0924 9.27263L44.5352 5.29499C53.1549 2.87324 59.5645 7.94699 61.0982 12.4548C64.7792 18.8187 61.6095 25.1826 59.5645 27.5691C50.3622 38.3083 50.1066 42.4183 50.3622 46.6609Z" fill="#DFD8CF"/>
</svg>
