<svg width="300" height="200" viewBox="0 0 300 200" fill="none" xmlns="http://www.w3.org/2000/svg">
<path d="M21.3232 180.6L13 8.77143L161.152 7H286L281.006 180.6L266.024 182.371L262.695 191.229L239.39 193L234.396 182.371H204.433H72.9268L64.6037 193L42.9634 191.229L37.9695 180.6H21.3232Z" fill="#F58E8C"/>
<path d="M33.9027 167.89L30 22.9359L236.842 20.9502C236.842 20.9502 236.003 55.1859 236.842 68.1255C237.682 81.0651 234.891 163.919 234.891 163.919L209.524 167.89H33.9027Z" fill="#1A3E4A"/>
<path d="M251.243 78.2194C250.053 74.9105 254.711 71.3259 257.189 69.9472C260.757 67.7413 266.604 71.7854 269.081 74.0833V79.5981C266.703 85.1128 259.171 84.6533 255.702 83.7341C253.324 82.6312 251.738 79.5981 251.243 78.2194Z" fill="#FEFDFD"/>
<path d="M209 62.1716L214 59.0801H219V117.819H210.667L209 62.1716Z" fill="#D9D9D9"/>
<path d="M248.185 43.3815C248.185 41.1672 254.139 36.9233 257.116 35.0781C260.688 33.971 267.535 38.3072 270.512 40.6137C271.702 42.8279 272 47.9944 272 50.3009L260.093 57.2204L252.651 54.4526C247.888 51.1313 247.689 45.6879 248.185 43.3815Z" fill="#FEFDFD"/>
<path d="M247 118.6L248.529 113.02H271.471V119.995L247 121.39V118.6Z" fill="#FCCDC4"/>
<path d="M260.765 126.97L247 128.365V133.945L250.059 135.34H271.471V126.97H260.765Z" fill="#FCCDC4"/>
<path d="M248.529 140.92L247 142.315L248.529 149.29H266.882L273 147.895L271.471 142.315L248.529 140.92Z" fill="#FCCDC4"/>
</svg>
