<svg width="300" height="200" viewBox="0 0 300 200" fill="none" xmlns="http://www.w3.org/2000/svg">
<g opacity="0.7">
<path d="M0 35.37L8.28729 25.35L36.4641 32.03V17H263.536V32.03L291.713 25.35L300 35.37L296.685 43.72L263.536 60.42V117.2L260.221 155.61L232.044 184H82.8729L49.7238 173.98L36.4641 133.9V60.42L8.28729 50.4L0 35.37Z" fill="#5791C0"/>
<path d="M72 48.4997C58.4 47.6997 46.6667 56.1663 42.5 60.4997V135.5L57 168L85.5 176H231L251.5 152.5L255.5 123V56.9995C244 43.9995 229.438 49.3073 223 53.4996C201.5 67.4995 182.167 58.4996 174 53.4996C157.5 44.4996 143 48.4997 135 53.4996C121.5 61.937 107.5 63.0601 97.5 56.9995C84.3 48.9995 75.6667 47.9996 72 48.4997Z" fill="url(#paint0_linear_2849_11219)"/>
<path d="M75 69.9558C75 72.7115 72.7627 74.9478 70 74.9478C67.2373 74.9478 65 72.7115 65 69.9558C65 67.2001 67.2373 64.9639 70 64.9639C72.7627 64.9639 75 67.2001 75 69.9558Z" stroke="white" stroke-opacity="0.33" stroke-width="2"/>
<path d="M211 139.861C211 142.066 209.21 143.855 207 143.855C204.79 143.855 203 142.066 203 139.861C203 137.657 204.79 135.868 207 135.868C209.21 135.868 211 137.657 211 139.861Z" stroke="white" stroke-opacity="0.33" stroke-width="2"/>
<path d="M240 112.899C240 115.103 238.21 116.892 236 116.892C233.79 116.892 232 115.103 232 112.899C232 110.694 233.79 108.905 236 108.905C238.21 108.905 240 110.694 240 112.899Z" stroke="white" stroke-opacity="0.33" stroke-width="2"/>
<path d="M216 95.4215C216 96.2468 215.33 96.9181 214.5 96.9181C213.67 96.9181 213 96.2468 213 95.4215C213 94.5961 213.67 93.9248 214.5 93.9248C215.33 93.9248 216 94.5961 216 95.4215Z" stroke="white" stroke-opacity="0.33" stroke-width="2"/>
<path d="M68 124.882C68 127.086 66.2104 128.875 64 128.875C61.7896 128.875 60 127.086 60 124.882C60 122.678 61.7896 120.889 64 120.889C66.2104 120.889 68 122.678 68 124.882Z" stroke="white" stroke-opacity="0.33" stroke-width="2"/>
<path d="M89 102.911C89 104.012 88.1058 104.907 87 104.907C85.8942 104.907 85 104.012 85 102.911C85 101.81 85.8942 100.915 87 100.915C88.1058 100.915 89 101.81 89 102.911Z" stroke="white" stroke-opacity="0.33" stroke-width="2"/>
<path d="M134 41.494C134 43.4224 132.434 44.9879 130.5 44.9879C128.566 44.9879 127 43.4224 127 41.494C127 39.5656 128.566 38 130.5 38C132.434 38 134 39.5656 134 41.494Z" stroke="white" stroke-opacity="0.33" stroke-width="2"/>
<path d="M192 52.9784C192 54.0795 191.106 54.9744 190 54.9744C188.894 54.9744 188 54.0795 188 52.9784C188 51.8773 188.894 50.9824 190 50.9824C191.106 50.9824 192 51.8773 192 52.9784Z" stroke="white" stroke-opacity="0.33" stroke-width="2"/>
</g>
<defs>
<linearGradient id="paint0_linear_2849_11219" x1="149" y1="48.1465" x2="149" y2="176" gradientUnits="userSpaceOnUse">
<stop stop-color="white" stop-opacity="0.35"/>
<stop offset="1" stop-color="white" stop-opacity="0"/>
</linearGradient>
</defs>
</svg>
