<svg width="32" height="32" viewBox="0 0 32 32" fill="none" xmlns="http://www.w3.org/2000/svg">
<path d="M15.6885 3.17322C13.1649 3.17322 10.7309 3.89968 8.64595 5.21016L8.59877 4.45521C8.51387 3.01179 7.29215 1.91498 5.85345 2.00519C4.42419 2.0954 3.33455 3.32991 3.41946 4.77333L3.81569 11.321C3.81569 11.321 3.81569 11.3447 3.82041 11.3542C3.82984 11.4824 3.84871 11.6059 3.87229 11.7293C3.87229 11.7435 3.87701 11.753 3.88173 11.7673C3.91003 11.8812 3.94305 11.9952 3.9855 12.1092C3.99022 12.1234 3.99494 12.1424 4.00437 12.1566C4.05154 12.2658 4.10343 12.375 4.16475 12.4795C4.1789 12.5032 4.18834 12.5222 4.20249 12.546C4.26381 12.6504 4.33457 12.7454 4.41004 12.8404C4.41475 12.8499 4.42419 12.8546 4.42891 12.8641C4.50438 12.9543 4.58457 13.035 4.67419 13.111C4.68834 13.1252 4.70249 13.1347 4.71665 13.149C4.80627 13.2297 4.90533 13.3009 5.0091 13.3674C5.02797 13.3769 5.04684 13.3911 5.06099 13.4006C5.27326 13.5288 5.50439 13.6285 5.7544 13.6903C5.76855 13.6903 5.7827 13.6998 5.79685 13.7045C5.811 13.7045 5.82043 13.7045 5.83459 13.7093C5.85817 13.714 5.88176 13.7235 5.90534 13.7283L11.2781 14.7776C11.4432 14.8108 11.613 14.8251 11.7733 14.8251C12.9903 14.8251 14.0753 13.9562 14.3158 12.7074C14.5894 11.2925 13.6696 9.92028 12.2639 9.64489L11.5894 9.51194C12.8158 8.79498 14.2215 8.39613 15.6791 8.39613C20.165 8.39613 23.816 12.0712 23.816 16.5866C23.816 21.1021 20.165 24.7771 15.6791 24.7771C12.2781 24.7771 9.20256 22.6167 8.03273 19.4022C7.54216 18.049 6.05157 17.3511 4.70249 17.8496C3.35814 18.3434 2.66473 19.8438 3.16002 21.2018C5.07514 26.4674 10.1035 30 15.6743 30C23.0235 30 29 23.9842 29 16.5866C29 9.18907 23.0377 3.17322 15.6885 3.17322Z" fill="white"/>
</svg>
