<svg width="300" height="200" viewBox="0 0 300 200" fill="none" xmlns="http://www.w3.org/2000/svg">
<g opacity="0.7">
<path d="M35.2875 52.4242L17 17L93.475 18.6869L283 17L278.013 33.8687L268.038 57.4848V135.081L259.725 162.071L233.125 184H90.15L53.575 175.566L35.2875 143.515V89.5354V52.4242Z" fill="#48A76D"/>
<path d="M60.2251 113.151L63.5501 111.464H66.8751V118.211H60.2251V113.151Z" fill="white"/>
<path d="M60.2251 140.138L63.5501 138.451H66.8751V145.199H60.2251V140.138Z" fill="white"/>
<path d="M78.5125 116.522V111.462L81.8375 108.088L86.825 111.462L85.1625 118.209L78.5125 116.522Z" fill="white"/>
<path d="M96.8 113.148L101.787 111.462L105.112 109.775L106.775 116.522L100.125 118.209L96.8 113.148Z" fill="white"/>
<path d="M116.75 114.835L120.075 109.775H123.4L125.062 113.148V116.522L120.075 118.209L116.75 114.835Z" fill="white"/>
<path d="M136.7 116.522L138.362 109.775H143.35L145.012 113.148V116.522L141.687 118.209L136.7 116.522Z" fill="white"/>
<path d="M156.65 113.148L159.975 109.775L163.3 111.462L164.962 114.835L161.637 118.209L158.312 116.522L156.65 113.148Z" fill="white"/>
<path d="M176.6 113.148L179.925 109.775L183.25 111.462L184.912 114.835L183.25 118.209L178.262 116.522L176.6 113.148Z" fill="white"/>
<path d="M198.212 116.522V111.462H203.2L204.862 114.835L201.537 118.209L198.212 116.522Z" fill="white"/>
<path d="M216.5 114.835L219.825 109.775L224.812 113.148L223.15 116.522L219.825 118.209L216.5 114.835Z" fill="white"/>
<path d="M236.45 113.148L239.775 109.775H243.1L244.762 113.148V116.522L241.437 118.209L236.45 116.522V113.148Z" fill="white"/>
<path d="M78.5125 143.51V138.449L81.8375 135.075L86.825 138.449L85.1625 145.196L78.5125 143.51Z" fill="white"/>
<path d="M96.8 140.136L101.787 138.449L105.112 136.762L106.775 143.51L100.125 145.196L96.8 140.136Z" fill="white"/>
<path d="M116.75 141.823L120.075 136.762H123.4L125.062 140.136V143.51L120.075 145.196L116.75 141.823Z" fill="white"/>
<path d="M136.7 143.51L138.362 136.762H143.35L145.012 140.136V143.51L141.687 145.196L136.7 143.51Z" fill="white"/>
<path d="M156.65 140.136L159.975 136.762L163.3 138.449L164.962 141.823L161.637 145.196L158.312 143.51L156.65 140.136Z" fill="white"/>
<path d="M176.6 140.136L179.925 136.762L183.25 138.449L184.912 141.823L183.25 145.196L178.262 143.51L176.6 140.136Z" fill="white"/>
<path d="M198.212 143.51V138.449H203.2L204.862 141.823L201.537 145.196L198.212 143.51Z" fill="white"/>
<path d="M216.5 141.823L219.825 136.762L224.812 140.136L223.15 143.51L219.825 145.196L216.5 141.823Z" fill="white"/>
<path d="M236.45 140.136L239.775 136.762H243.1L244.762 140.136V143.51L241.437 145.196L236.45 143.51V140.136Z" fill="white"/>
<path d="M236.45 130.018V124.958L233.125 121.584L228.137 124.958L229.8 131.705L236.45 130.018Z" fill="white"/>
<path d="M218.162 126.645L213.175 124.958L209.85 123.271L208.187 130.018L214.837 131.705L218.162 126.645Z" fill="white"/>
<path d="M198.212 128.331L194.887 123.271H191.562L189.9 126.645V130.018L194.887 131.705L198.212 128.331Z" fill="white"/>
<path d="M178.262 130.018L176.6 123.271H171.612L169.95 126.645V130.018L173.275 131.705L178.262 130.018Z" fill="white"/>
<path d="M158.312 126.645L154.987 123.271L151.662 124.958L150 128.331L153.325 131.705L156.65 130.018L158.312 126.645Z" fill="white"/>
<path d="M138.362 126.645L135.037 123.271L131.712 124.958L130.05 128.331L131.712 131.705L136.7 130.018L138.362 126.645Z" fill="white"/>
<path d="M116.75 130.018V124.958H111.762L110.1 128.331L113.425 131.705L116.75 130.018Z" fill="white"/>
<path d="M98.4624 128.331L95.1375 123.271L90.1499 126.645L91.8125 130.018L95.1375 131.705L98.4624 128.331Z" fill="white"/>
<path d="M78.5125 126.645L75.1875 123.271H71.8624L70.2 126.645V130.018L73.5249 131.705L78.5125 130.018V126.645Z" fill="white"/>
<path d="M236.45 157.007V151.946L233.125 148.572L228.137 151.946L229.8 158.693L236.45 157.007Z" fill="white"/>
<path d="M218.162 153.633L213.175 151.946L209.85 150.259L208.187 157.007L214.837 158.693L218.162 153.633Z" fill="white"/>
<path d="M198.212 155.32L194.887 150.259H191.562L189.9 153.633V157.007L194.887 158.693L198.212 155.32Z" fill="white"/>
<path d="M178.262 157.007L176.6 150.259H171.612L169.95 153.633V157.007L173.275 158.693L178.262 157.007Z" fill="white"/>
<path d="M158.312 153.633L154.987 150.259L151.662 151.946L150 155.32L153.325 158.693L156.65 157.007L158.312 153.633Z" fill="white"/>
<path d="M138.362 153.633L135.037 150.259L131.712 151.946L130.05 155.32L131.712 158.693L136.7 157.007L138.362 153.633Z" fill="white"/>
<path d="M116.75 157.007V151.946H111.762L110.1 155.32L113.425 158.693L116.75 157.007Z" fill="white"/>
<path d="M98.4624 155.32L95.1375 150.259L90.1499 153.633L91.8125 157.007L95.1375 158.693L98.4624 155.32Z" fill="white"/>
<path d="M78.5125 153.633L75.1875 150.259H71.8624L70.2 153.633V157.007L73.5249 158.693L78.5125 157.007V153.633Z" fill="white"/>
</g>
</svg>
