<svg width="253" height="88" viewBox="0 0 253 88" fill="none" xmlns="http://www.w3.org/2000/svg">
<path d="M10.316 50.7502C9.35427 41.9415 3.20555 34.8479 2.28882e-05 32.8711C1.07824 34.9352 3.56688 40.703 4.8957 47.2617C6.22453 53.8203 3.12723 58.1462 1.48772 61.2718C-2.00919 69.2259 2.83751 76.6631 5.98473 79.3668C4.64425 75.3548 3.13483 67.4298 6.37785 62.68C9.32342 58.3659 10.7939 53.3869 10.316 50.7502Z" fill="#DFD8CF"/>
<path d="M252.902 56.3882C251.84 46.6575 245.047 38.8215 241.506 36.6377C242.697 38.9178 245.446 45.2894 246.914 52.5344C248.382 59.7795 244.961 64.5583 243.15 68.011C239.287 76.7976 244.641 85.0132 248.117 87.9998C246.637 83.568 244.969 74.8135 248.552 69.5666C251.805 64.8009 253.43 59.3008 252.902 56.3882Z" fill="#DFD8CF"/>
<path d="M232.831 42.5979C232.032 35.2855 226.928 29.3969 224.267 27.7559C225.162 29.4693 227.228 34.2574 228.331 39.7019C229.434 45.1465 226.863 48.7376 225.502 51.3322C222.599 57.9352 226.623 64.109 229.235 66.3535C228.123 63.023 226.87 56.4442 229.562 52.5012C232.007 48.9199 233.228 44.7867 232.831 42.5979Z" fill="#DFD8CF"/>
<path d="M18.0832 22.599C19.2829 11.4649 26.9535 2.49872 30.9525 0C29.6074 2.60899 26.5028 9.89948 24.8451 18.1895C23.1873 26.4795 27.0513 31.9475 29.0966 35.8982C33.459 45.952 27.4127 55.3526 23.4865 58.77C25.1588 53.699 27.0418 43.6818 22.9961 37.6781C19.3214 32.2251 17.487 25.9318 18.0832 22.599Z" fill="#DFD8CF"/>
</svg>
