<svg width="100" height="104" viewBox="0 0 100 104" fill="none" xmlns="http://www.w3.org/2000/svg">
<path d="M52.7855 93.0542C54.9773 93.3 57.5216 84.9033 58.5198 80.6743L68.5196 64.6165L73.6535 58.142C79.4281 58.765 82.7548 56.238 83.6964 54.8966C89.0403 50.6572 88.7372 43.9372 86.368 40.1412C86.7947 34.7951 83.8683 30.6349 82.3518 29.223L78.9206 30.4083L79.0145 23.5225L70.8943 17.3163C59.5552 9.30207 47.7833 16.9717 45.0632 17.3131C42.8872 17.5863 39.3938 22.3319 37.9192 24.6705C35.364 24.7328 29.7175 25.1853 27.573 26.4964C25.4285 27.8076 26.1596 33.6961 26.7932 36.4765L24.2346 37.852L21.8351 43.0323C9.971 47.6743 11.7246 54.0285 11.4387 56.0284C11.21 57.6283 13.1206 61.923 14.1045 63.8703C12.1535 66.6995 14.7821 70.4732 15.6326 72.7853C16.313 74.635 20.7223 75.7781 22.8419 76.1185L21.6625 78.6647C22.6907 85.1099 28.3433 85.5202 31.041 84.9197C31.6807 89.9913 37.9913 93.0369 41.0667 93.9257C45.5846 95.6947 50.0457 92.7469 52.7855 93.0542Z" fill="#3B9F57"/>
<path d="M45.4329 86.2726L42.4399 94.2374L48.2594 96.1594L54.1717 92.8481L57.5453 88.7347L61.7661 72.0764L72.5598 64.3484L79.9874 58.417C90.2945 55.6381 89.5645 44.735 87.464 40.0585C89.6897 37.3948 85.6624 31.8267 83.7494 29.4734L79.5354 29.5085L79.5817 23.8805L69.6535 16.6647C62.747 12.5615 54.462 14.0427 51.4779 15.6623L51.913 21.3528L50.5224 32.0515L42.921 39.3202L35.2134 36.8613L34.0091 46.1271L35.9787 59.5938L31.7223 76.5253L35.4113 75.2563L40.1037 79.0717L45.4329 86.2726Z" fill="#328958"/>
<path d="M60.6542 84.1472L46.8252 79.7019L46.2945 72.4738C49.1041 73.7805 55.658 72.3179 58.5838 71.4232L45.0013 53.7706L45.5528 49.5272L56.503 53.5002L50.924 48.1658L55.9677 44.8005L64.2767 56.2759L57.1836 35.4458L61.6122 34.5504L72.4365 49.2947L70.3825 35.6903L73.7652 39.072L78.0681 61.0105C78.7779 67.6146 88.5687 80.2567 93.3754 85.7522C94.2411 88.1399 92.0035 92.5368 90.7765 94.4368L82.1725 101.066L76.9884 98.725L60.6542 84.1472Z" fill="#8DCD79"/>
<path d="M76.7393 90.3272C75.9443 95.2518 78.1521 98.8252 79.3554 99.9963C83.6243 102.908 87.1348 99.2398 88.3565 97.0418C92.7047 93.3843 93.5049 89.4621 93.6084 86.4313C92.6909 83.9552 87.9032 82.1546 85.624 81.5637L79.5074 82.4381C77.5605 84.3062 76.8508 88.4759 76.7393 90.3272Z" fill="#C0E1C2"/>
</svg>
